inDegrees=no
num_controls=7
num_derivatives=13
num_iterations=115
num_multipliers=7
num_parameters=0
num_slacks=7
num_states=26
objective=0.431042
objective_accelerations=0.050455
objective_balance=0.006796
objective_effort=0.031334
objective_height=0.341305
objective_ligament=0.001152
solver_duration=1474.954641
status=Solve_Succeeded
success=true
DataType=double
version=3
OpenSimVersion=4.5
endheader
time	/jointset/ground_pelvis/pelvis_tilt/value	/jointset/ground_pelvis/pelvis_tx/value	/jointset/ground_pelvis/pelvis_ty/value	/jointset/hip_l/hip_flexion_l/value	/jointset/hip_l/hip_adduction_l/value	/jointset/hip_l/hip_rotation_l/value	/jointset/back/lumbar_extension/value	/jointset/patellofemoral_l/patellar_flexion_l/value	/jointset/knee_l/knee_flexion_l/value	/jointset/knee_l/knee_adduction_l/value	/jointset/knee_l/knee_rotation_l/value	/jointset/ankle_l/ankle_angle_l/value	/jointset/subtalar_l/subtalar_angle_l/value	/jointset/ground_pelvis/pelvis_tilt/speed	/jointset/ground_pelvis/pelvis_tx/speed	/jointset/ground_pelvis/pelvis_ty/speed	/jointset/hip_l/hip_flexion_l/speed	/jointset/hip_l/hip_adduction_l/speed	/jointset/hip_l/hip_rotation_l/speed	/jointset/back/lumbar_extension/speed	/jointset/patellofemoral_l/patellar_flexion_l/speed	/jointset/knee_l/knee_flexion_l/speed	/jointset/knee_l/knee_adduction_l/speed	/jointset/knee_l/knee_rotation_l/speed	/jointset/ankle_l/ankle_angle_l/speed	/jointset/subtalar_l/subtalar_angle_l/speed	/forceset/tau_hip_flexion_l	/forceset/tau_hip_adduction_l	/forceset/tau_hip_rotation_l	/forceset/tau_knee_flexion_l	/forceset/tau_ankle_angle_l	/forceset/tau_subtalar_angle_l	/forceset/tau_lumbar_extension	lambda_cid13_p0	lambda_cid13_p1	lambda_cid13_p2	lambda_cid13_p3	lambda_cid13_p4	lambda_cid13_p5	lambda_cid14_p0	/jointset/ground_pelvis/pelvis_tilt/accel	/jointset/ground_pelvis/pelvis_tx/accel	/jointset/ground_pelvis/pelvis_ty/accel	/jointset/hip_l/hip_flexion_l/accel	/jointset/hip_l/hip_adduction_l/accel	/jointset/hip_l/hip_rotation_l/accel	/jointset/back/lumbar_extension/accel	/jointset/patellofemoral_l/patellar_flexion_l/accel	/jointset/knee_l/knee_flexion_l/accel	/jointset/knee_l/knee_adduction_l/accel	/jointset/knee_l/knee_rotation_l/accel	/jointset/ankle_l/ankle_angle_l/accel	/jointset/subtalar_l/subtalar_angle_l/accel	gamma_cid13_p0	gamma_cid13_p1	gamma_cid13_p2	gamma_cid13_p3	gamma_cid13_p4	gamma_cid13_p5	gamma_cid14_p0
0	-0.1565721151758282	0.05723647115699061	0.8978797199842337	0.3774924667018715	-0.2608366554628533	-0.2436344830388953	-0.01265067647494873	0.03223648243721507	0.03223648243721463	-0.1745328883659618	0.1465369753213741	-0.04231377076293093	-0.01130362757055672	0	0	0	0	0	0	0	0	0	0	0	0	0	0.1538436824358905	-0.08448640810245951	-0.05111815732488113	-0.3386533335079969	0.3807897249535425	-0.04853944881094804	-0.09116386569101145	80.74788788695079	2.818916402141892	3.858078712847826	-34.52786729371472	-590.6858121113127	-71.32372299649373	-38.22766175737591	-2.906995942077005	-1.294193199464548	-0.9650882750272151	10.90738761567677	-1.345785680663806	3.419428921949045	-5.457175826397919	10.79227377020472	10.79227377020477	0.03201637603758906	0.3578980518369702	3.02995074984345	-0.6713451667968404	-6.347063173077763e-08	4.545589351574203e-08	1.46855331993372e-07	3.28186459622587e-08	-2.471895386237208e-08	-1.245322794539638e-07	-2.316255192811967e-08
0.01	-0.156710297350546	0.05717072380369672	0.8978325260406025	0.3780246317069043	-0.2609034482848867	-0.2434643293248085	-0.01292475389845848	0.03276406615844363	0.03276406615844341	-0.1745329251994329	0.1465515856518571	-0.04216869025657162	-0.01133817795771391	-0.02736903231410874	-0.01328573050007868	-0.009416674191459031	0.1060620671084064	-0.01327432561391153	0.03386283191215552	-0.05448138982992319	0.1050548123447734	0.1050548123447829	2.150058775300724e-05	0.002916849221163924	0.02864453052265832	-0.006914303228840631	0.1398193791314999	-0.09393308898783363	-0.04734469322614864	-0.3145132854736413	0.3402102277779664	-0.02616377240608877	-0.08140498622438319	68.46320785519907	-4.574865746507847	4.839221474355206	-25.22926406416294	-591.0839253841459	-84.87309449432244	-38.2431445139592	-2.611753743977184	-1.36619538780595	-0.926644754767458	10.39996804767604	-1.305654180978332	3.344503956317385	-5.393506330462905	10.2927998139865	10.29279981398736	-0.008212203085864169	0.2577775957652545	2.725962941569736	-0.7021301535181902	-7.806011110117617e-08	8.894543206433238e-08	1.631842960102675e-07	4.35187298342505e-08	-1.275849011711549e-07	-7.198722457903176e-08	-2.646314050893436e-08
0.02	-0.1571141492219855	0.05696803266289672	0.8976918278023442	0.379606287740871	-0.261100463998904	-0.2429605885655067	-0.0137336223741025	0.03432834097259466	0.03432834097259458	-0.1745318468646042	0.1465952043222537	-0.04174831269736724	-0.01144200282767762	-0.05313393934418947	-0.02738875750122103	-0.0187008589254222	0.2098982057869505	-0.02604457839676331	0.066717409043054	-0.1069582104267804	0.2073382185844603	0.2073382185844581	0.0002258370463065395	0.005801667982694095	0.05505941056902515	-0.01385489656130126	0.1257950758271091	-0.1033797698732049	-0.04357122912741817	-0.2903732374392846	0.2996307306023918	-0.003788096001226433	-0.07164610675775641	56.26517356202758	-11.98724622318968	5.827249841173203	-16.15551366177949	-590.2049752203263	-98.31195050609709	-38.28909930282671	-2.586170885271378	-1.457652499677304	-0.9385903835280376	10.46220192970433	-1.244971114451798	3.217777965697632	-5.056261979784715	10.23799254918741	10.23799254918324	0.06858355019780764	0.351491959910215	2.584020654585143	-0.6766031875207869	-9.264959047157471e-08	1.324349706129227e-07	1.795132600271629e-07	5.421881370624229e-08	-2.304508484799377e-07	-1.944216970409975e-08	-2.976372908974905e-08
0.03	-0.1577693883943673	0.05662283881593477	0.8974588399448908	0.3822140723859392	-0.2614225324938822	-0.2421331099490867	-0.01505652847498502	0.03690192414729321	0.03690192414729376	-0.1745278961032183	0.146667543798029	-0.04107147442274238	-0.01161448541974036	-0.07779109341918383	-0.04152304015057089	-0.02787990981815819	0.3111195916862985	-0.03828336505546564	0.0986352867848837	-0.157250171651204	0.3069160688573573	0.3069160688573899	0.000559826613926272	0.008652520715442086	0.0802694261684662	-0.02057154234176648	0.1219432755887328	-0.09731702254050911	-0.04323786338086675	-0.2884291659069523	0.2992511456444101	-0.008106973770481214	-0.06817491895965817	55.98949096212988	-10.20570993639227	5.705902893838511	-16.77239117816584	-590.5123195309986	-94.08676490759528	-38.364033526251	-2.387075849641821	-1.372259499505557	-0.9050885358730416	9.87122395282168	-1.200499872447411	3.157314042183633	-4.959737478977004	9.748335107711004	9.748335107718969	0.01517328062083582	0.2498034027248675	2.483663496612078	-0.6587238389166905	-1.215706380440431e-07	1.321926035270206e-07	2.268204559942422e-07	8.047805837209006e-08	-3.600624965778586e-07	-3.265425377601548e-08	-3.871899644277166e-08
0.04	-0.1586675167437054	0.05614011347209094	0.8971345563597646	0.3858178942965551	-0.2618644223416211	-0.2409907482824974	-0.01687116904515312	0.04045741659299699	0.04045741659299645	-0.1745207321220341	0.1467679760956825	-0.04014370169532543	-0.01185204018272923	-0.1017117747353107	-0.05489505687759738	-0.03696000445996901	0.4091056588965101	-0.05000884894888714	0.1296940190770333	-0.2053051042838591	0.4037200727850605	0.4037200727851545	0.0008684810046169921	0.0114202323589016	0.1052463011274467	-0.02686933074652395	0.1180914753503626	-0.09125427520781101	-0.04290449763433	-0.2864850943746121	0.2988715606864314	-0.0124258515397329	-0.06470373116155785	55.79456300412158	-8.437796530506853	5.586141475236635	-17.59775636735377	-589.6487246372075	-89.74971197210404	-38.46596918141166	-2.438876333497858	-1.305199315212642	-0.9187991333430023	9.815138191877034	-1.142310561395644	3.045948875761602	-4.608856261431009	9.683223280148653	9.683223280149809	0.06351651481198209	0.3348637420525215	2.537392526493027	-0.5928317123792526	-1.507871818681006e-07	1.310485476651496e-07	2.74766378393284e-07	1.070581104769864e-07	-4.902256024240092e-07	-4.722215514580438e-08	-4.779085511068516e-08
0.05	-0.1598011657018363	0.05552681267952998	0.8967196965528539	0.3903866360270974	-0.2624207570336361	-0.2395420902581944	-0.01915511478012005	0.04496757550298405	0.04496757550298545	-0.1745103414322974	0.1468957941492465	-0.03896798408625095	-0.01215043479344152	-0.1248573251974727	-0.06770220388994067	-0.04601488318456068	0.5041534064071238	-0.06114870497739367	0.1598993580181161	-0.2511427491613299	0.4978464327395419	0.4978464327396265	0.001223561375487241	0.01411998872842063	0.1297746005191796	-0.03273951571802235	0.1113082144902849	-0.08857041793567891	-0.04171196375323972	-0.2795288092378433	0.2887617419970889	-0.01033849214264672	-0.05939410367080016	52.68042748114873	-8.869956384150431	5.736002667506575	-15.91370007812316	-588.8725391382467	-89.55146333423417	-38.59247674309283	-2.22829831455209	-1.259016106165395	-0.8993702783170285	9.276183113230958	-1.083449047077206	2.98705131590424	-4.520024568662815	9.207560513653148	9.207560513650922	0.023638176758371	0.2339836681233783	2.392145337758664	-0.5736509534523472	-1.682141154270755e-07	1.458715757746926e-07	2.99186388707859e-07	1.241484084782517e-07	-5.706754582500089e-07	-4.195688503329761e-08	-5.165686300648229e-08
0.06	-0.1611614509469847	0.0547873316744615	0.8962141803514371	0.3958911732492611	-0.2630852154706361	-0.2377955338619558	-0.02188719815741326	0.05040504164462754	0.05040504164462929	-0.1744959730631409	0.1470499001832487	-0.03755066414481008	-0.01250543906665223	-0.1470390321387004	-0.08013109937909842	-0.05509128336114642	0.5962647572208341	-0.07163359794586191	0.1892736934641035	-0.2949326327491072	0.5891815191162337	0.5891815191162995	0.001664016887709959	0.01667782844681125	0.1535667676007224	-0.03819126324620954	0.1045249536302052	-0.08588656066354791	-0.04051942987215754	-0.2725725241010763	0.2786519233077448	-0.00825113274556187	-0.05408447618004217	49.63782227580653	-9.314281545952211	5.887396063977444	-14.42132425796345	-587.0525080706898	-89.2549386072146	-38.74099334151206	-2.246107629310977	-1.229549010575544	-0.9231034237418144	9.227858852496336	-1.011317949387995	2.879748176742513	-4.199304003492307	9.124968564590736	9.124968564590008	0.08059154308246615	0.3064804118268422	2.39016606445501	-0.5091442237170184	-1.851446443433101e-07	1.613669021567162e-07	3.226158343030879e-07	1.408391378856799e-07	-6.490321246014759e-07	-3.585653401627312e-08	-5.530367718555872e-08
0.07000000000000001	-0.1627392806357335	0.05392558103092088	0.8956175875129491	0.4023030548123449	-0.263851140058371	-0.2357595559227946	-0.02504661796281629	0.05674264948172133	0.0567426494817234	-0.1744766800173473	0.1472292908685047	-0.03589866866992192	-0.01291268777152848	-0.1683763377646919	-0.09214002263171421	-0.06424272786647361	0.6856226020355136	-0.08143410510977975	0.2177730588353295	-0.3366221219264887	0.6778819577116255	0.6778819577117667	0.002202407259231019	0.01919002249733496	0.1767289195174386	-0.04317848997019059	0.09812346441487667	-0.08241908615967782	-0.03953680678477479	-0.2673531394913532	0.2710676473873412	-0.00744705346576555	-0.04899267477179828	47.3321020109621	-9.337739921020209	5.980185952550313	-13.43444589540497	-585.6743671338729	-88.12692065100306	-38.90850636480869	-2.054964313990018	-1.174684607896899	-0.9136122496343279	8.716383456099331	-0.9468715628435068	2.812657510424429	-4.104390414098019	8.673879023328039	8.673879023339875	0.04169157456021202	0.2219992268615609	2.263716137347746	-0.4815739742795003	-1.937395320093771e-07	1.498783270153406e-07	3.423870127029278e-07	1.502732050276265e-07	-6.959096244054018e-07	-4.256755812946613e-08	-5.877420589556057e-08
0.08	-0.164525967837692	0.05294611702979562	0.8949289907722665	0.409593842055604	-0.2647115606103351	-0.2334430589712984	-0.02861305646784059	0.06395352120803173	0.06395352120803455	-0.1744517573097612	0.147433485559305	-0.03401815639945303	-0.01336742115915269	-0.1888105347805517	-0.1036737708960268	-0.07349206380004712	0.7720458932560161	-0.0905327907916904	0.2453774959310265	-0.3763363726733473	0.7638342969596029	0.7638342969598254	0.002789949245682988	0.02163862955571581	0.1992701267168669	-0.04768819979580598	0.09172197519954427	-0.07895161165580945	-0.03855418369739387	-0.2621337548816342	0.2634833714669355	-0.006642974185971415	-0.0439008733635551	45.08991223204033	-9.370254279962973	6.072059711740315	-12.62075971770143	-583.3755438262185	-86.90912824483812	-39.09190737292951	-2.065485907284629	-1.134514012914916	-0.9426817093910747	8.640948133660935	-0.8709536529865639	2.700762521636712	-3.804256317387741	8.5753486951079	8.575348695108294	0.09042186606864308	0.293763013398275	2.265977120997398	-0.4136408440438913	-2.017966363689817e-07	1.366488550014876e-07	3.619221738643554e-07	1.592391004105098e-07	-7.407562102385186e-07	-5.010512257364092e-08	-6.223336134949308e-08
0.09	-0.1665129863216968	0.05185367103190682	0.8941472288455093	0.4177352421737603	-0.2656593943017388	-0.2308549881732828	-0.0325664392641766	0.07201092106594116	0.07201092106594398	-0.1744206139427374	0.1476620910720745	-0.03191509187735816	-0.01386476097963146	-0.2084480774412146	-0.1147350696853816	-0.08288590168157195	0.8557573870192566	-0.09891027656592334	0.2721001221561449	-0.414023677194602	0.8471898098804863	0.847189809880574	0.003445808169798135	0.02406032399628034	0.2212385713714975	-0.05169506843098506	0.08519768285056444	-0.07570653661908103	-0.03759946322899595	-0.2574948132222214	0.2562517513981066	-0.005523748349678301	-0.03871657325991446	42.94073481203837	-9.542469026542495	6.170836681007855	-11.78339805058158	-581.5295681507901	-85.95765497177267	-39.28778380095137	-1.891132131344514	-1.079851969797594	-0.9417207230982469	8.164716888387273	-0.8026299156813843	2.637475919389061	-3.70349110959581	8.147285381884972	8.147285381864592	0.05428584570647284	0.2129947127578224	2.146633747579092	-0.3815659061405664	-2.029065310830089e-07	1.121772117478868e-07	3.730656346906701e-07	1.623264217709906e-07	-7.590055154884423e-07	-5.979016087781233e-08	-6.437205133666139e-08
